PathFileType	4	(X/Y/Z)	OpenSim_Sub04_EMGBaseline_Accel.trc
DataRate	CameraRate	NumFrames	NumMarkers	Units	OrigDataRate	OrigDataStartFrame	OrigNumFrames
100	100	13	8	m	100	993	7941
Frame#	Time	torso_imu_offset_imu	pelvis_imu_offset_imu	tibia_r_imu_offset_imu	femur_r_imu_offset_imu	tibia_l_imu_offset_imu	femur_l_imu_offset_imu	toes_r_imu_offset_imu	toes_l_imu_offset_imu
				X1	Y1	Z1	X2	Y2	Z2	X3	Y3	Z3	X4	Y4	Z4	X5	Y5	Z5	X6	Y6	Z6	X7	Y7	Z7	X8		Y8	Z8	

993	9.92000000	-9.22847155	-0.77866457	9.91771384	11.28851399	1.61582542	5.01400830	13.01939096	1.67675409	3.87906668	12.99822731	-3.67687415	1.92710873	11.99231584	-0.19125552	1.96253134	10.06628449	3.74288735	-2.25631099	11.15738939	-1.99966899	10.44480184	5.30617213	3.92889982	11.60484934
994	9.93000000	-9.23700465	-0.65364427	9.98410632	11.54102355	2.05464587	5.34033422	12.50132999	3.05235308	2.92540758	12.76510044	-4.89788290	1.22153606	12.48674196	0.41453879	2.44280388	10.21863158	3.61797630	-2.07279671	11.18429776	-4.94036542	9.41149783	5.93894534	3.96363199	11.40350343
995	9.94000000	-9.23241294	-0.53919552	9.95352050	11.46607627	2.23914681	5.54219424	11.61314288	3.10977008	1.97558094	12.37003652	-5.63140420	0.91833616	12.79536881	1.12805802	2.60441825	10.25215529	3.46804921	-1.99030989	15.50309571	-9.21416051	8.52701420	6.19028550	4.00592617	11.56830659
996	9.95000000	-9.18036342	-0.46420217	9.77777558	10.95334247	1.97194392	5.52196202	11.14856282	2.47404920	0.86816216	11.55437946	-5.59418264	0.57948458	12.93437770	1.20739353	2.92784697	10.25311684	3.31429890	-1.84579541	11.28788575	-1.15931835	8.63521025	6.14412942	3.93382529	11.43757696
997	9.96000000	-9.04677931	-0.41670003	9.46990259	10.19800473	1.58316752	5.13229618	10.94684545	2.75052079	0.73004832	10.41768848	-4.78165480	0.03611477	12.81769484	0.30205351	2.65999068	10.24681485	3.22530805	-1.33957860	6.80205467	2.01069271	10.22110101	5.91318416	5.09974370	12.02590918
998	9.97000000	-8.69662968	-0.25200782	9.06222913	9.31862671	1.28381644	4.73549988	10.26146962	3.90503578	0.91436656	9.42278038	-3.31770369	-0.18609695	12.37290517	-0.64260523	2.27166681	10.29549715	2.81410367	-0.77044254	8.22892628	-0.46874509	8.89036746	6.80328595	5.14293748	11.92708803
999	9.98000000	-8.27594626	-0.17115636	8.68920551	8.72526552	1.05898189	4.59036516	9.05231405	5.35875391	0.86829469	8.84218328	-1.56801909	0.23412432	12.01976756	-1.60772869	1.70418307	10.36107245	1.95495190	-0.38579883	6.89926502	-2.17926921	7.97580369	8.62035514	2.90289027	10.69501449
1000	9.99000000	-8.04705260	-0.06224695	8.38295309	8.38027528	0.94727518	4.45332013	8.01700685	6.12345191	0.44139322	8.64849297	0.11196133	0.90699711	11.81850728	-2.63282503	0.60005521	10.44536604	0.87242155	-0.27359118	6.95963470	-1.27899124	8.24312403	10.53806410	1.19396111	10.63935572
1001	10.00000000	-7.91329348	0.02813953	8.24545976	7.98400627	0.98677438	4.40160797	7.58223287	5.93801789	0.34196990	8.48091377	1.31004571	1.13731290	11.83066883	-3.27507192	-0.55209990	10.60610853	-0.12718313	-0.27482286	5.40568738	-1.04862331	8.81610749	8.72158173	4.24485323	11.48391401
1002	10.01000000	-7.71927273	0.06201666	8.11246726	7.84217918	0.84891138	4.41184627	7.76838600	5.18337763	0.93845588	8.19505499	1.82880906	0.53795298	11.46746409	-3.53405055	-0.79068901	10.72147427	-0.78999371	-0.35692006	6.03037949	-2.11198974	8.24477247	8.88021236	6.75400975	11.48387198
1003	10.02000000	-7.52483615	0.15126271	8.02507806	7.77365644	0.83897555	4.32453853	8.37075872	4.71411853	1.49791457	7.92507415	1.57054802	-0.57281993	10.79394427	-3.62892990	-1.00918174	10.67768051	-1.17936413	-0.67152080	6.09113952	-1.67460887	7.84128973	10.64183541	6.29597137	11.29820123
1004	10.03000000	-7.57021497	0.26743985	8.00329690	7.82756843	0.78644782	4.33373869	9.03676661	4.41015148	1.47955395	8.08567053	0.69285098	-1.25883297	9.84564766	-3.92576726	-1.06766122	10.27595955	-1.28373096	-1.02466895	5.80098679	-1.14032711	8.30832430	12.20597828	6.87966039	11.63428994
1005	10.04000000	-7.62324498	0.34250733	7.95343900	8.16278000	0.85460765	4.47058204	9.58102865	3.51522375	1.13515506	8.71525650	-0.56370928	-1.53491916	8.92516954	-5.04264378	-0.61357159	9.71506502	-1.21783221	-1.06691557	5.97747793	-1.53060041	8.60511813	13.71755725	4.83667780	10.03733374
